<?xml version="1.0" encoding="UTF-8" standalone="no"?>
<!-- Created with Inkscape (http://www.inkscape.org/) -->

<svg
   width="111.12499mm"
   height="54.875908mm"
   viewBox="0 0 111.12499 54.875908"
   version="1.1"
   id="svg1175"
   xml:space="preserve"
   inkscape:export-filename="bitmap.svg"
   inkscape:export-xdpi="96"
   inkscape:export-ydpi="96"
   xmlns:inkscape="http://www.inkscape.org/namespaces/inkscape"
   xmlns:sodipodi="http://sodipodi.sourceforge.net/DTD/sodipodi-0.dtd"
   xmlns="http://www.w3.org/2000/svg"
   xmlns:svg="http://www.w3.org/2000/svg"><sodipodi:namedview
     id="namedview1177"
     pagecolor="#ffffff"
     bordercolor="#000000"
     borderopacity="0.25"
     inkscape:showpageshadow="2"
     inkscape:pageopacity="0.0"
     inkscape:pagecheckerboard="0"
     inkscape:deskcolor="#d1d1d1"
     inkscape:document-units="mm"
     showgrid="false" /><defs
     id="defs1172" /><g
     inkscape:label="Capa 1"
     inkscape:groupmode="layer"
     id="layer1"
     transform="translate(-24.967311,-45.703314)"><g
       id="g1315"
       transform="matrix(0.26458333,0,0,0.26458333,9466.6245,16338.386)"
       inkscape:export-filename="logo.svg"
       inkscape:export-xdpi="96"
       inkscape:export-ydpi="96"><path
         d="m -35652.044,-61378.773 c -14.032,0 -25.426,-11.394 -25.426,-25.426 0,-14.031 11.394,-25.426 25.426,-25.426 8.098,0 15.255,3.767 19.87,9.606 l 3.672,-7.252 c -6.027,-6.121 -14.314,-9.887 -23.542,-9.887 -18.175,0 -32.96,14.784 -32.96,32.959 0,18.175 14.785,32.96 32.96,32.96 9.228,0 17.515,-3.767 23.542,-9.888 l -3.672,-7.251 c -4.615,5.838 -11.772,9.605 -19.87,9.605 z"
         data-paper-data="{&quot;glyphName&quot;:&quot;C&quot;,&quot;glyphIndex&quot;:0,&quot;firstGlyphOfWord&quot;:true,&quot;word&quot;:1}"
         id="element-id-92283"
         style="mix-blend-mode:normal;fill:#ff0000"
         inkscape:export-filename="element-id-92283.svg"
         inkscape:export-xdpi="96"
         inkscape:export-ydpi="96" /><path
         d="m -35611.551,-61379.714 v -56.503 h -7.534 v 64.036 h 43.319 l -3.767,-7.533 z m 65.919,7.533 -28.251,-64.977 -21.659,49.91 h 35.126 l 6.591,15.067 z m -38.421,-22.601 10.17,-23.448 10.171,23.448 z"
         data-paper-data="{&quot;glyphName&quot;:&quot;î±&quot;,&quot;glyphIndex&quot;:1,&quot;word&quot;:1}"
         id="element-id-83487"
         style="mix-blend-mode:normal;fill:#4d4d4d" /><path
         d="m -35529.623,-61419.266 c 0,-5.65 5.65,-10.359 12.242,-10.359 10.359,0 14.879,6.686 14.879,6.686 l 6.781,-3.39 c 0,0 -6.121,-10.829 -21.66,-10.829 -11.3,0 -19.775,8.475 -19.775,17.892 0,23.543 35.784,12.242 35.784,29.193 0,6.592 -6.592,11.3 -14.125,11.3 -11.301,0 -16.763,-7.628 -16.763,-7.628 l -6.78,3.391 c 0,0 7.534,11.771 23.543,11.771 12.242,0 21.659,-8.475 21.659,-18.834 0,-24.485 -35.785,-13.184 -35.785,-29.193 z"
         data-paper-data="{&quot;glyphName&quot;:&quot;S&quot;,&quot;glyphIndex&quot;:2,&quot;word&quot;:1}"
         id="element-id-89995"
         style="mix-blend-mode:normal;fill:#4d4d4d" /><path
         d="m -35475.946,-61379.714 v -20.718 h 26.368 v -7.534 h -26.368 v -20.717 h 28.252 l 3.766,-7.534 h -39.551 v 64.036 h 39.551 l -3.766,-7.533 z"
         data-paper-data="{&quot;glyphName&quot;:&quot;E&quot;,&quot;glyphIndex&quot;:3,&quot;word&quot;:1}"
         id="element-id-74176"
         style="mix-blend-mode:normal;fill:#4d4d4d" /><path
         d="m -35426.035,-61419.266 c 0,-5.65 5.65,-10.359 12.242,-10.359 10.359,0 14.879,6.686 14.879,6.686 l 6.78,-3.39 c 0,0 -6.121,-10.829 -21.659,-10.829 -11.301,0 -19.776,8.475 -19.776,17.892 0,23.543 35.785,12.242 35.785,29.193 0,6.592 -6.592,11.3 -14.126,11.3 -11.3,0 -16.762,-7.628 -16.762,-7.628 l -6.78,3.391 c 0,0 7.533,11.771 23.542,11.771 12.242,0 21.659,-8.475 21.659,-18.834 0,-24.485 -35.784,-13.184 -35.784,-29.193 z"
         data-paper-data="{&quot;glyphName&quot;:&quot;S&quot;,&quot;glyphIndex&quot;:4,&quot;lastGlyphOfWord&quot;:true,&quot;word&quot;:1}"
         id="element-id-78919"
         style="mix-blend-mode:normal;fill:#4d4d4d" /><path
         d="m -35324.425,-61436.217 -16.857,30.7 -16.856,-30.7 h -8.57 l 21.659,39.552 v 24.484 h 7.534 v -24.484 l 21.659,-39.552 z"
         data-paper-data="{&quot;glyphName&quot;:&quot;Y&quot;,&quot;glyphIndex&quot;:5,&quot;firstGlyphOfWord&quot;:true,&quot;word&quot;:2}"
         id="element-id-34593"
         style="mix-blend-mode:normal;fill:#ff0000" /><path
         d="m -35273.197,-61372.181 h 8.193 l -28.251,-64.977 -28.251,64.977 h 8.193 l 6.592,-15.067 h 26.932 z m -30.228,-22.601 10.17,-23.448 10.17,23.448 z"
         data-paper-data="{&quot;glyphName&quot;:&quot;A&quot;,&quot;glyphIndex&quot;:6,&quot;lastGlyphOfWord&quot;:true,&quot;word&quot;:2}"
         id="element-id-18762"
         style="mix-blend-mode:normal;fill:#ff0000" /><path
         d="m -35389.122,-61464.211 h -71.951 c -1.825,0 -3.306,-1.481 -3.306,-3.305 0,-1.825 1.481,-3.306 3.306,-3.306 h 71.951 c 4.144,0 4.467,-3.415 4.467,-4.461 v -92.285 c 0,-3.945 -3.146,-4.437 -4.503,-4.465 h -90.891 c -3.946,0 -4.438,3.144 -4.466,4.497 v 57.053 c 0,1.825 -1.481,3.305 -3.306,3.305 -1.825,0 -3.305,-1.48 -3.305,-3.305 v -57.085 c 0,-4.451 2.951,-11.076 11.077,-11.076 h 90.927 c 4.449,0 11.078,2.949 11.078,11.076 v 92.283 c 0,4.453 -2.951,11.074 -11.078,11.074 z m -102.849,0 c -0.406,0 -0.815,-0.08 -1.207,-0.227 -1.265,-0.5 -2.098,-1.718 -2.098,-3.079 0,-15.508 -10.601,-29.205 -25.779,-33.304 -1.329,-0.358 -2.297,-1.506 -2.429,-2.875 -0.131,-1.372 0.604,-2.681 1.841,-3.283 6.802,-3.317 11.028,-9.966 11.028,-17.351 0,-10.707 -8.84,-19.418 -19.702,-19.418 -10.865,0 -19.703,8.711 -19.703,19.418 0,7.385 4.228,14.034 11.032,17.351 1.239,0.604 1.972,1.911 1.843,3.283 -0.13,1.371 -1.1,2.519 -2.429,2.875 -15.182,4.099 -25.781,17.796 -25.781,33.304 0,1.825 -1.48,3.306 -3.305,3.306 -1.825,0 -3.303,-1.481 -3.303,-3.306 0,-16.207 9.686,-30.747 24.24,-37.37 -5.608,-4.859 -8.903,-11.858 -8.903,-19.445 0,-14.353 11.802,-26.026 26.313,-26.026 14.508,0 26.312,11.675 26.312,26.026 0,7.587 -3.293,14.582 -8.901,19.445 12.219,5.561 21.005,16.706 23.511,29.73 l 39.297,-42.375 c 1.24,-1.341 3.336,-1.417 4.67,-0.176 1.339,1.242 1.421,3.329 0.178,4.668 l -44.302,47.771 c -0.638,0.687 -1.52,1.058 -2.423,1.058 z"
         data-paper-data="{&quot;isPathIcon&quot;:true}"
         id="element-id-1076"
         style="mix-blend-mode:normal;fill:#ff0000" /></g></g></svg>
